<?xml version="1.0" encoding="utf-8"?>
<!-- Generator: Adobe Illustrator 25.4.1, SVG Export Plug-In . SVG Version: 6.00 Build 0)  -->
<svg version="1.1" xmlns="http://www.w3.org/2000/svg" xmlns:xlink="http://www.w3.org/1999/xlink" x="0px" y="0px"
	 viewBox="0 0 1366 768" style="enable-background:new 0 0 1366 768;" xml:space="preserve">
<style type="text/css">
	.st0{fill:#4B549A;stroke:#4B549A;stroke-miterlimit:10;}
	.st1{fill:#4B559B;}
	.st2{fill:#4C559C;}
	.st3{fill:#4C569D;}
	.st4{fill:#4D569E;}
	.st5{fill:#4D579F;}
	.st6{fill:#4E58A0;}
	.st7{fill:#4E58A1;}
	.st8{fill:#4E59A2;}
	.st9{fill:#4F59A3;}
	.st10{fill:#4F5AA4;}
	.st11{fill:#505BA5;}
	.st12{fill:#505BA6;}
	.st13{fill:#515CA7;}
	.st14{fill:#515DA8;}
	.st15{fill:#525EA9;}
	.st16{fill:#525EAA;}
	.st17{fill:#535FAB;}
	.st18{fill:#5360AC;}
	.st19{fill:#5460AD;}
	.st20{fill:#5461AE;}
	.st21{fill:#5461AF;}
	.st22{fill:#5562B0;}
	.st23{fill:#5563B1;}
	.st24{fill:#5663B2;}
	.st25{fill:#5664B3;}
	.st26{fill:#5764B4;}
	.st27{fill:#5765B5;}
	.st28{fill:#FFFFFF;stroke:#4B549A;stroke-miterlimit:10;}
	.st29{fill:none;stroke:#4B549A;stroke-miterlimit:10;}
	.st30{display:none;}
	.st31{display:inline;}
	.st32{display:inline;fill:#FFFFFF;stroke:#4B549A;stroke-miterlimit:10;}
	.st33{fill:#5764B4;stroke:#4B549A;stroke-width:3.571429e-02;stroke-miterlimit:10;}
	.st34{fill:#5664B3;stroke:#4B549A;stroke-width:7.142857e-02;stroke-miterlimit:10;}
	.st35{fill:#5663B2;stroke:#4B549A;stroke-width:0.1071;stroke-miterlimit:10;}
	.st36{fill:#5563B1;stroke:#4B549A;stroke-width:0.1429;stroke-miterlimit:10;}
	.st37{fill:#5562B0;stroke:#4B549A;stroke-width:0.1786;stroke-miterlimit:10;}
	.st38{fill:#5461AF;stroke:#4B549A;stroke-width:0.2143;stroke-miterlimit:10;}
	.st39{fill:#5461AE;stroke:#4B549A;stroke-width:0.25;stroke-miterlimit:10;}
	.st40{fill:#5460AD;stroke:#4B549A;stroke-width:0.2857;stroke-miterlimit:10;}
	.st41{fill:#5360AC;stroke:#4B549A;stroke-width:0.3214;stroke-miterlimit:10;}
	.st42{fill:#535FAB;stroke:#4B549A;stroke-width:0.3571;stroke-miterlimit:10;}
	.st43{fill:#525EAA;stroke:#4B549A;stroke-width:0.3929;stroke-miterlimit:10;}
	.st44{fill:#525EA9;stroke:#4B549A;stroke-width:0.4286;stroke-miterlimit:10;}
	.st45{fill:#515DA8;stroke:#4B549A;stroke-width:0.4643;stroke-miterlimit:10;}
	.st46{fill:#515CA8;stroke:#4B549A;stroke-width:0.5;stroke-miterlimit:10;}
	.st47{fill:#515CA7;stroke:#4B549A;stroke-width:0.5357;stroke-miterlimit:10;}
	.st48{fill:#505BA6;stroke:#4B549A;stroke-width:0.5714;stroke-miterlimit:10;}
	.st49{fill:#505BA5;stroke:#4B549A;stroke-width:0.6071;stroke-miterlimit:10;}
	.st50{fill:#4F5AA4;stroke:#4B549A;stroke-width:0.6429;stroke-miterlimit:10;}
	.st51{fill:#4F59A3;stroke:#4B549A;stroke-width:0.6786;stroke-miterlimit:10;}
	.st52{fill:#4E59A2;stroke:#4B549A;stroke-width:0.7143;stroke-miterlimit:10;}
	.st53{fill:#4E58A1;stroke:#4B549A;stroke-width:0.75;stroke-miterlimit:10;}
	.st54{fill:#4E58A0;stroke:#4B549A;stroke-width:0.7857;stroke-miterlimit:10;}
	.st55{fill:#4D579F;stroke:#4B549A;stroke-width:0.8214;stroke-miterlimit:10;}
	.st56{fill:#4D569E;stroke:#4B549A;stroke-width:0.8571;stroke-miterlimit:10;}
	.st57{fill:#4C569D;stroke:#4B549A;stroke-width:0.8929;stroke-miterlimit:10;}
	.st58{fill:#4C559C;stroke:#4B549A;stroke-width:0.9286;stroke-miterlimit:10;}
	.st59{fill:#4B559B;stroke:#4B549A;stroke-width:0.9643;stroke-miterlimit:10;}
	.st60{fill:#FCFCFC;stroke:#4B5499;stroke-miterlimit:10;}
</style>
<g id="Layer_1">
	<g id="Rock">
		<g>
			<path class="st0" d="M515.4,246c0,57.5-46.6,104.2-104.2,104.2c-57.5,0-104.2-46.6-104.2-104.2c0-57.5,46.6-104.2,104.2-104.2
				c20.6,0,39.8,6,56,16.3c18.9,12.1,33.6,30.1,41.6,51.4C513.1,221,515.4,233.2,515.4,246z"/>
			<path class="st1" d="M514.8,246c0,57.2-46.4,103.6-103.6,103.6c-57.2,0-103.6-46.4-103.6-103.6c0-57.2,46.4-103.6,103.6-103.6
				c20.5,0,39.6,6,55.7,16.2c18.8,12,33.5,29.9,41.4,51.1C512.5,221.1,514.8,233.3,514.8,246z"/>
			<path class="st2" d="M514.3,246c0,56.9-46.1,103-103,103c-56.9,0-103-46.1-103-103s46.1-103,103-103c20.4,0,39.4,5.9,55.4,16.1
				c18.7,11.9,33.3,29.8,41.1,50.9C512,221.2,514.3,233.4,514.3,246z"/>
			<path class="st3" d="M513.7,246c0,56.6-45.9,102.4-102.4,102.4c-56.6,0-102.4-45.9-102.4-102.4c0-56.6,45.8-102.4,102.4-102.4
				c20.3,0,39.2,5.9,55.1,16.1c18.6,11.9,33.1,29.6,40.9,50.6C511.4,221.4,513.7,233.4,513.7,246z"/>
			<path class="st4" d="M513.1,246c0,56.2-45.6,101.8-101.8,101.8c-56.3,0-101.8-45.6-101.8-101.8c0-56.2,45.6-101.8,101.8-101.8
				c20.2,0,38.9,5.9,54.8,16c18.5,11.8,32.9,29.4,40.7,50.3C510.8,221.5,513.1,233.5,513.1,246z"/>
			<path class="st5" d="M512.5,246c0,55.9-45.3,101.3-101.3,101.3C355.3,347.3,310,302,310,246s45.3-101.3,101.3-101.3
				c20,0,38.7,5.8,54.5,15.9c18.4,11.7,32.7,29.3,40.4,50C510.3,221.7,512.5,233.6,512.5,246z"/>
			<path class="st6" d="M511.9,246c0,55.6-45.1,100.7-100.7,100.7c-55.6,0-100.7-45.1-100.7-100.7c0-55.6,45.1-100.7,100.7-100.7
				c19.9,0,38.5,5.8,54.1,15.8c18.3,11.7,32.5,29.1,40.2,49.7C509.7,221.8,511.9,233.7,511.9,246z"/>
			<path class="st7" d="M511.3,246c0,55.3-44.8,100.1-100.1,100.1c-55.3,0-100.1-44.8-100.1-100.1c0-55.3,44.8-100.1,100.1-100.1
				c19.8,0,38.3,5.8,53.8,15.7c18.2,11.6,32.3,28.9,40,49.4C509.1,221.9,511.3,233.7,511.3,246z"/>
			<path class="st8" d="M510.8,246c0,55-44.6,99.5-99.5,99.5c-55,0-99.5-44.6-99.5-99.5s44.5-99.5,99.5-99.5
				c19.7,0,38.1,5.7,53.5,15.6c18.1,11.5,32.1,28.8,39.7,49.1C508.6,222.1,510.8,233.8,510.8,246z"/>
			<path class="st9" d="M510.2,246c0,54.6-44.3,98.9-98.9,98.9c-54.6,0-98.9-44.3-98.9-98.9c0-54.6,44.3-98.9,98.9-98.9
				c19.6,0,37.8,5.7,53.2,15.5c17.9,11.5,32,28.6,39.5,48.8C508,222.2,510.2,233.9,510.2,246z"/>
			<path class="st10" d="M509.6,246c0,54.3-44,98.3-98.3,98.3c-54.3,0-98.3-44-98.3-98.3c0-54.3,44-98.3,98.3-98.3
				c19.5,0,37.6,5.7,52.9,15.4c17.8,11.4,31.8,28.4,39.3,48.6C507.4,222.4,509.6,233.9,509.6,246z"/>
			<path class="st11" d="M509,246c0,54-43.8,97.8-97.8,97.8c-54,0-97.8-43.8-97.8-97.8s43.8-97.8,97.8-97.8
				c19.4,0,37.4,5.6,52.6,15.3c17.7,11.3,31.6,28.2,39,48.3C506.8,222.5,509,234,509,246z"/>
			<path class="st12" d="M508.4,246c0,53.7-43.5,97.2-97.2,97.2c-53.7,0-97.2-43.5-97.2-97.2c0-53.7,43.5-97.2,97.2-97.2
				c19.2,0,37.2,5.6,52.3,15.2c17.6,11.3,31.4,28.1,38.8,48C506.3,222.6,508.4,234.1,508.4,246z"/>
			<path class="st13" d="M507.8,246c0,53.3-43.2,96.6-96.6,96.6c-53.4,0-96.6-43.2-96.6-96.6c0-53.3,43.2-96.6,96.6-96.6
				c19.1,0,36.9,5.6,51.9,15.1c17.5,11.2,31.2,27.9,38.6,47.7C505.7,222.8,507.8,234.2,507.8,246z"/>
			<path class="st14" d="M507.3,246c0,53-43,96-96,96c-53,0-96-43-96-96c0-53,43-96,96-96c19,0,36.7,5.5,51.6,15.1
				c17.4,11.1,31,27.7,38.3,47.4C505.1,222.9,507.3,234.2,507.3,246z"/>
			<path class="st14" d="M506.7,246c0,52.7-42.7,95.4-95.4,95.4c-52.7,0-95.4-42.7-95.4-95.4c0-52.7,42.7-95.4,95.4-95.4
				c18.9,0,36.5,5.5,51.3,15c17.3,11.1,30.8,27.6,38.1,47.1C504.6,223.1,506.7,234.3,506.7,246z"/>
			<path class="st15" d="M506.1,246c0,52.4-42.5,94.8-94.8,94.8c-52.4,0-94.8-42.5-94.8-94.8c0-52.4,42.5-94.8,94.8-94.8
				c18.8,0,36.3,5.5,51,14.9c17.2,11,30.6,27.4,37.9,46.8C504,223.2,506.1,234.4,506.1,246z"/>
			<path class="st16" d="M505.5,246c0,52.1-42.2,94.3-94.3,94.3c-52.1,0-94.3-42.2-94.3-94.3c0-52.1,42.2-94.3,94.3-94.3
				c18.7,0,36,5.4,50.7,14.8c17.1,10.9,30.4,27.2,37.6,46.5C503.4,223.3,505.5,234.4,505.5,246z"/>
			<path class="st17" d="M504.9,246c0,51.7-41.9,93.7-93.7,93.7c-51.7,0-93.7-41.9-93.7-93.7s41.9-93.7,93.7-93.7
				c18.5,0,35.8,5.4,50.4,14.7c17,10.9,30.3,27.1,37.4,46.2C502.9,223.5,504.9,234.5,504.9,246z"/>
			<path class="st18" d="M504.3,246c0,51.4-41.7,93.1-93.1,93.1c-51.4,0-93.1-41.7-93.1-93.1c0-51.4,41.7-93.1,93.1-93.1
				c18.4,0,35.6,5.4,50.1,14.6c16.9,10.8,30.1,26.9,37.2,46C502.3,223.6,504.3,234.6,504.3,246z"/>
			<path class="st19" d="M503.8,246c0,51.1-41.4,92.5-92.5,92.5c-51.1,0-92.5-41.4-92.5-92.5c0-51.1,41.4-92.5,92.5-92.5
				c18.3,0,35.4,5.3,49.7,14.5c16.8,10.7,29.9,26.7,37,45.7C501.7,223.8,503.8,234.7,503.8,246z"/>
			<path class="st20" d="M503.2,246c0,50.8-41.2,91.9-91.9,91.9c-50.8,0-91.9-41.2-91.9-91.9s41.1-91.9,91.9-91.9
				c18.2,0,35.2,5.3,49.4,14.4c16.7,10.7,29.7,26.6,36.7,45.4C501.1,223.9,503.2,234.7,503.2,246z"/>
			<path class="st21" d="M502.6,246c0,50.4-40.9,91.3-91.3,91.3c-50.5,0-91.3-40.9-91.3-91.3c0-50.4,40.9-91.3,91.3-91.3
				c18.1,0,34.9,5.3,49.1,14.3c16.6,10.6,29.5,26.4,36.5,45.1C500.6,224,502.6,234.8,502.6,246z"/>
			<path class="st22" d="M502,246c0,50.1-40.6,90.8-90.8,90.8c-50.1,0-90.8-40.6-90.8-90.8c0-50.1,40.6-90.8,90.8-90.8
				c18,0,34.7,5.2,48.8,14.2c16.5,10.5,29.3,26.2,36.3,44.8C500,224.2,502,234.9,502,246z"/>
			<path class="st23" d="M501.4,246c0,49.8-40.4,90.2-90.2,90.2c-49.8,0-90.2-40.4-90.2-90.2s40.4-90.2,90.2-90.2
				c17.8,0,34.5,5.2,48.5,14.1c16.4,10.5,29.1,26.1,36,44.5C499.4,224.3,501.4,235,501.4,246z"/>
			<path class="st24" d="M500.8,246c0,49.5-40.1,89.6-89.6,89.6c-49.5,0-89.6-40.1-89.6-89.6c0-49.5,40.1-89.6,89.6-89.6
				c17.7,0,34.3,5.2,48.2,14c16.3,10.4,28.9,25.9,35.8,44.2C498.9,224.5,500.8,235,500.8,246z"/>
			<path class="st25" d="M500.3,246c0,49.2-39.9,89-89,89c-49.2,0-89-39.9-89-89c0-49.2,39.8-89,89-89c17.6,0,34,5.1,47.9,14
				c16.1,10.3,28.8,25.7,35.6,43.9C498.3,224.6,500.3,235.1,500.3,246z"/>
			<path class="st26" d="M499.7,246c0,48.8-39.6,88.4-88.4,88.4c-48.8,0-88.4-39.6-88.4-88.4s39.6-88.4,88.4-88.4
				c17.5,0,33.8,5.1,47.6,13.9c16,10.3,28.6,25.5,35.3,43.7C497.7,224.8,499.7,235.2,499.7,246z"/>
			<path class="st27" d="M499.1,246c0,48.5-39.3,87.8-87.8,87.8c-48.5,0-87.8-39.3-87.8-87.8c0-48.5,39.3-87.8,87.8-87.8
				c17.4,0,33.6,5.1,47.2,13.8c15.9,10.2,28.4,25.4,35.1,43.4C497.2,224.9,499.1,235.2,499.1,246z"/>
		</g>
		<path class="st28" d="M508.7,209.8c-13.4,10-26.9,20-40.3,30c0.1,7.4-0.4,13.5-1,18.1c-1.2,9.7-1.9,14.7-5.1,19.3
			c-3.6,5.2-8.6,8.2-12.4,10.5c-3.9,2.3-7.4,3.7-10,4.6c-12.3,4.1-21.6,6.1-24.2,5.5c-2.1-0.5-3.1-1.8-3.1-1.8
			c-0.6-0.9-0.7-1.8-0.8-2.4c-3,1.1-5.5,1.2-7,1.1c-5.3-0.3-11.1-3.1-13.9-8.4c-1.2-2.3-1.5-4.4-1.7-5.6c-1.2,0.4-4.4,1.3-7.8-0.1
			c-3.9-1.6-5.5-5.2-6.4-7.2c-0.9-2-1.3-3.8-1.4-5.1c-1.3-0.2-3.8-0.9-6.1-2.8c-3.1-2.5-4.1-5.7-4.6-7.4c-1-3.2-0.8-6-0.5-7.8
			c-0.6,0.1-3,0.5-5.2-1c-1-0.7-1.6-1.5-2-2.1c0.5-20.4,2.2-35.6,4.1-41.5c0.4-1.2,1.2-4,3.4-6.8c2.2-3,4.9-4.8,6.8-5.8
			c11.3-4.5,20.9-6.3,27.6-7.2c4.8-0.6,14.5-1,33.7-1.7c3.9-0.1,7-0.3,9.2-0.3c8.1-7.8,17.3-16.4,27.3-25.6
			c18.9,12.1,33.6,30.1,41.6,51.4C508.8,209.7,508.7,209.7,508.7,209.8z"/>
		<path class="st29" d="M420.4,246.8c1.2,6.4,0.3,11-0.6,13.9c-0.2,0.5-0.3,1-0.5,1.2c-2,4.9-5.2,8.4-8.1,10.8"/>
		<path class="st29" d="M425.3,265.7c-1.8-1.7-3.7-3.3-5.5-5c3.8-4,7.6-8,11.4-12c-0.7-0.9-1.4-1.8-2-2.7c2.8,3.3,5.6,6.6,8.4,9.8"
			/>
		<path class="st29" d="M435.8,254.7c0.4,1.7,0.8,3.6,1,5.6c0.8,6.5,0.1,12.3-0.5,14.8c-2,8-12,15.1-24.5,18.4"/>
		<path class="st29" d="M394.4,242.3c-1.5,5.7-2.9,12.3-3.8,19.5c-0.9,6.8-1.3,13.1-1.4,18.8"/>
		<path class="st29" d="M382.5,227.4c-1.7,5.2-3.2,11-4.6,17.1c-1.9,8.5-3.1,16.4-3.8,23.6"/>
		<path class="st29" d="M371.2,211.4c-1.7,5.7-3.3,11.8-4.7,18.1c-1.7,7.2-3,14.1-4.1,20.7"/>
	</g>
	
</svg>
