<?xml version="1.0" encoding="utf-8"?>
<!-- Generator: Adobe Illustrator 25.4.1, SVG Export Plug-In . SVG Version: 6.00 Build 0)  -->
<svg version="1.1" xmlns="http://www.w3.org/2000/svg" xmlns:xlink="http://www.w3.org/1999/xlink" x="0px" y="0px"
	 viewBox="0 0 1366 768" style="enable-background:new 0 0 1366 768;" xml:space="preserve">
<style type="text/css">
	.st0{display:none;}
	.st1{display:inline;}
	.st2{fill:#4B549A;stroke:#4B549A;stroke-miterlimit:10;}
	.st3{fill:#4B559B;}
	.st4{fill:#4C559C;}
	.st5{fill:#4C569D;}
	.st6{fill:#4D569E;}
	.st7{fill:#4D579F;}
	.st8{fill:#4E58A0;}
	.st9{fill:#4E58A1;}
	.st10{fill:#4E59A2;}
	.st11{fill:#4F59A3;}
	.st12{fill:#4F5AA4;}
	.st13{fill:#505BA5;}
	.st14{fill:#505BA6;}
	.st15{fill:#515CA7;}
	.st16{fill:#515DA8;}
	.st17{fill:#525EA9;}
	.st18{fill:#525EAA;}
	.st19{fill:#535FAB;}
	.st20{fill:#5360AC;}
	.st21{fill:#5460AD;}
	.st22{fill:#5461AE;}
	.st23{fill:#5461AF;}
	.st24{fill:#5562B0;}
	.st25{fill:#5563B1;}
	.st26{fill:#5663B2;}
	.st27{fill:#5664B3;}
	.st28{fill:#5764B4;}
	.st29{fill:#5765B5;}
	.st30{display:inline;fill:#FFFFFF;stroke:#4B549A;stroke-miterlimit:10;}
	.st31{display:inline;fill:none;stroke:#4B549A;stroke-miterlimit:10;}
	.st32{fill:#5764B4;stroke:#4B549A;stroke-width:3.571429e-02;stroke-miterlimit:10;}
	.st33{fill:#5664B3;stroke:#4B549A;stroke-width:7.142857e-02;stroke-miterlimit:10;}
	.st34{fill:#5663B2;stroke:#4B549A;stroke-width:0.1071;stroke-miterlimit:10;}
	.st35{fill:#5563B1;stroke:#4B549A;stroke-width:0.1429;stroke-miterlimit:10;}
	.st36{fill:#5562B0;stroke:#4B549A;stroke-width:0.1786;stroke-miterlimit:10;}
	.st37{fill:#5461AF;stroke:#4B549A;stroke-width:0.2143;stroke-miterlimit:10;}
	.st38{fill:#5461AE;stroke:#4B549A;stroke-width:0.25;stroke-miterlimit:10;}
	.st39{fill:#5460AD;stroke:#4B549A;stroke-width:0.2857;stroke-miterlimit:10;}
	.st40{fill:#5360AC;stroke:#4B549A;stroke-width:0.3214;stroke-miterlimit:10;}
	.st41{fill:#535FAB;stroke:#4B549A;stroke-width:0.3571;stroke-miterlimit:10;}
	.st42{fill:#525EAA;stroke:#4B549A;stroke-width:0.3929;stroke-miterlimit:10;}
	.st43{fill:#525EA9;stroke:#4B549A;stroke-width:0.4286;stroke-miterlimit:10;}
	.st44{fill:#515DA8;stroke:#4B549A;stroke-width:0.4643;stroke-miterlimit:10;}
	.st45{fill:#515CA8;stroke:#4B549A;stroke-width:0.5;stroke-miterlimit:10;}
	.st46{fill:#515CA7;stroke:#4B549A;stroke-width:0.5357;stroke-miterlimit:10;}
	.st47{fill:#505BA6;stroke:#4B549A;stroke-width:0.5714;stroke-miterlimit:10;}
	.st48{fill:#505BA5;stroke:#4B549A;stroke-width:0.6071;stroke-miterlimit:10;}
	.st49{fill:#4F5AA4;stroke:#4B549A;stroke-width:0.6429;stroke-miterlimit:10;}
	.st50{fill:#4F59A3;stroke:#4B549A;stroke-width:0.6786;stroke-miterlimit:10;}
	.st51{fill:#4E59A2;stroke:#4B549A;stroke-width:0.7143;stroke-miterlimit:10;}
	.st52{fill:#4E58A1;stroke:#4B549A;stroke-width:0.75;stroke-miterlimit:10;}
	.st53{fill:#4E58A0;stroke:#4B549A;stroke-width:0.7857;stroke-miterlimit:10;}
	.st54{fill:#4D579F;stroke:#4B549A;stroke-width:0.8214;stroke-miterlimit:10;}
	.st55{fill:#4D569E;stroke:#4B549A;stroke-width:0.8571;stroke-miterlimit:10;}
	.st56{fill:#4C569D;stroke:#4B549A;stroke-width:0.8929;stroke-miterlimit:10;}
	.st57{fill:#4C559C;stroke:#4B549A;stroke-width:0.9286;stroke-miterlimit:10;}
	.st58{fill:#4B559B;stroke:#4B549A;stroke-width:0.9643;stroke-miterlimit:10;}
	.st59{fill:#FCFCFC;stroke:#4B5499;stroke-miterlimit:10;}
</style>
<g id="Layer_1">
	<g id="Rock" class="st0">
		<g class="st1">
			<path class="st2" d="M515.4,246c0,57.5-46.6,104.2-104.2,104.2c-57.5,0-104.2-46.6-104.2-104.2c0-57.5,46.6-104.2,104.2-104.2
				c20.6,0,39.8,6,56,16.3c18.9,12.1,33.6,30.1,41.6,51.4C513.1,221,515.4,233.2,515.4,246z"/>
			<path class="st3" d="M514.8,246c0,57.2-46.4,103.6-103.6,103.6c-57.2,0-103.6-46.4-103.6-103.6c0-57.2,46.4-103.6,103.6-103.6
				c20.5,0,39.6,6,55.7,16.2c18.8,12,33.5,29.9,41.4,51.1C512.5,221.1,514.8,233.3,514.8,246z"/>
			<path class="st4" d="M514.3,246c0,56.9-46.1,103-103,103c-56.9,0-103-46.1-103-103s46.1-103,103-103c20.4,0,39.4,5.9,55.4,16.1
				c18.7,11.9,33.3,29.8,41.1,50.9C512,221.2,514.3,233.4,514.3,246z"/>
			<path class="st5" d="M513.7,246c0,56.6-45.9,102.4-102.4,102.4c-56.6,0-102.4-45.9-102.4-102.4c0-56.6,45.8-102.4,102.4-102.4
				c20.3,0,39.2,5.9,55.1,16.1c18.6,11.9,33.1,29.6,40.9,50.6C511.4,221.4,513.7,233.4,513.7,246z"/>
			<path class="st6" d="M513.1,246c0,56.2-45.6,101.8-101.8,101.8c-56.3,0-101.8-45.6-101.8-101.8c0-56.2,45.6-101.8,101.8-101.8
				c20.2,0,38.9,5.9,54.8,16c18.5,11.8,32.9,29.4,40.7,50.3C510.8,221.5,513.1,233.5,513.1,246z"/>
			<path class="st7" d="M512.5,246c0,55.9-45.3,101.3-101.3,101.3C355.3,347.3,310,302,310,246s45.3-101.3,101.3-101.3
				c20,0,38.7,5.8,54.5,15.9c18.4,11.7,32.7,29.3,40.4,50C510.3,221.7,512.5,233.6,512.5,246z"/>
			<path class="st8" d="M511.9,246c0,55.6-45.1,100.7-100.7,100.7c-55.6,0-100.7-45.1-100.7-100.7c0-55.6,45.1-100.7,100.7-100.7
				c19.9,0,38.5,5.8,54.1,15.8c18.3,11.7,32.5,29.1,40.2,49.7C509.7,221.8,511.9,233.7,511.9,246z"/>
			<path class="st9" d="M511.3,246c0,55.3-44.8,100.1-100.1,100.1c-55.3,0-100.1-44.8-100.1-100.1c0-55.3,44.8-100.1,100.1-100.1
				c19.8,0,38.3,5.8,53.8,15.7c18.2,11.6,32.3,28.9,40,49.4C509.1,221.9,511.3,233.7,511.3,246z"/>
			<path class="st10" d="M510.8,246c0,55-44.6,99.5-99.5,99.5c-55,0-99.5-44.6-99.5-99.5s44.5-99.5,99.5-99.5
				c19.7,0,38.1,5.7,53.5,15.6c18.1,11.5,32.1,28.8,39.7,49.1C508.6,222.1,510.8,233.8,510.8,246z"/>
			<path class="st11" d="M510.2,246c0,54.6-44.3,98.9-98.9,98.9c-54.6,0-98.9-44.3-98.9-98.9c0-54.6,44.3-98.9,98.9-98.9
				c19.6,0,37.8,5.7,53.2,15.5c17.9,11.5,32,28.6,39.5,48.8C508,222.2,510.2,233.9,510.2,246z"/>
			<path class="st12" d="M509.6,246c0,54.3-44,98.3-98.3,98.3c-54.3,0-98.3-44-98.3-98.3c0-54.3,44-98.3,98.3-98.3
				c19.5,0,37.6,5.7,52.9,15.4c17.8,11.4,31.8,28.4,39.3,48.6C507.4,222.4,509.6,233.9,509.6,246z"/>
			<path class="st13" d="M509,246c0,54-43.8,97.8-97.8,97.8c-54,0-97.8-43.8-97.8-97.8s43.8-97.8,97.8-97.8
				c19.4,0,37.4,5.6,52.6,15.3c17.7,11.3,31.6,28.2,39,48.3C506.8,222.5,509,234,509,246z"/>
			<path class="st14" d="M508.4,246c0,53.7-43.5,97.2-97.2,97.2c-53.7,0-97.2-43.5-97.2-97.2c0-53.7,43.5-97.2,97.2-97.2
				c19.2,0,37.2,5.6,52.3,15.2c17.6,11.3,31.4,28.1,38.8,48C506.3,222.6,508.4,234.1,508.4,246z"/>
			<path class="st15" d="M507.8,246c0,53.3-43.2,96.6-96.6,96.6c-53.4,0-96.6-43.2-96.6-96.6c0-53.3,43.2-96.6,96.6-96.6
				c19.1,0,36.9,5.6,51.9,15.1c17.5,11.2,31.2,27.9,38.6,47.7C505.7,222.8,507.8,234.2,507.8,246z"/>
			<path class="st16" d="M507.3,246c0,53-43,96-96,96c-53,0-96-43-96-96c0-53,43-96,96-96c19,0,36.7,5.5,51.6,15.1
				c17.4,11.1,31,27.7,38.3,47.4C505.1,222.9,507.3,234.2,507.3,246z"/>
			<path class="st16" d="M506.7,246c0,52.7-42.7,95.4-95.4,95.4c-52.7,0-95.4-42.7-95.4-95.4c0-52.7,42.7-95.4,95.4-95.4
				c18.9,0,36.5,5.5,51.3,15c17.3,11.1,30.8,27.6,38.1,47.1C504.6,223.1,506.7,234.3,506.7,246z"/>
			<path class="st17" d="M506.1,246c0,52.4-42.5,94.8-94.8,94.8c-52.4,0-94.8-42.5-94.8-94.8c0-52.4,42.5-94.8,94.8-94.8
				c18.8,0,36.3,5.5,51,14.9c17.2,11,30.6,27.4,37.9,46.8C504,223.2,506.1,234.4,506.1,246z"/>
			<path class="st18" d="M505.5,246c0,52.1-42.2,94.3-94.3,94.3c-52.1,0-94.3-42.2-94.3-94.3c0-52.1,42.2-94.3,94.3-94.3
				c18.7,0,36,5.4,50.7,14.8c17.1,10.9,30.4,27.2,37.6,46.5C503.4,223.3,505.5,234.4,505.5,246z"/>
			<path class="st19" d="M504.9,246c0,51.7-41.9,93.7-93.7,93.7c-51.7,0-93.7-41.9-93.7-93.7s41.9-93.7,93.7-93.7
				c18.5,0,35.8,5.4,50.4,14.7c17,10.9,30.3,27.1,37.4,46.2C502.9,223.5,504.9,234.5,504.9,246z"/>
			<path class="st20" d="M504.3,246c0,51.4-41.7,93.1-93.1,93.1c-51.4,0-93.1-41.7-93.1-93.1c0-51.4,41.7-93.1,93.1-93.1
				c18.4,0,35.6,5.4,50.1,14.6c16.9,10.8,30.1,26.9,37.2,46C502.3,223.6,504.3,234.6,504.3,246z"/>
			<path class="st21" d="M503.8,246c0,51.1-41.4,92.5-92.5,92.5c-51.1,0-92.5-41.4-92.5-92.5c0-51.1,41.4-92.5,92.5-92.5
				c18.3,0,35.4,5.3,49.7,14.5c16.8,10.7,29.9,26.7,37,45.7C501.7,223.8,503.8,234.7,503.8,246z"/>
			<path class="st22" d="M503.2,246c0,50.8-41.2,91.9-91.9,91.9c-50.8,0-91.9-41.2-91.9-91.9s41.1-91.9,91.9-91.9
				c18.2,0,35.2,5.3,49.4,14.4c16.7,10.7,29.7,26.6,36.7,45.4C501.1,223.9,503.2,234.7,503.2,246z"/>
			<path class="st23" d="M502.6,246c0,50.4-40.9,91.3-91.3,91.3c-50.5,0-91.3-40.9-91.3-91.3c0-50.4,40.9-91.3,91.3-91.3
				c18.1,0,34.9,5.3,49.1,14.3c16.6,10.6,29.5,26.4,36.5,45.1C500.6,224,502.6,234.8,502.6,246z"/>
			<path class="st24" d="M502,246c0,50.1-40.6,90.8-90.8,90.8c-50.1,0-90.8-40.6-90.8-90.8c0-50.1,40.6-90.8,90.8-90.8
				c18,0,34.7,5.2,48.8,14.2c16.5,10.5,29.3,26.2,36.3,44.8C500,224.2,502,234.9,502,246z"/>
			<path class="st25" d="M501.4,246c0,49.8-40.4,90.2-90.2,90.2c-49.8,0-90.2-40.4-90.2-90.2s40.4-90.2,90.2-90.2
				c17.8,0,34.5,5.2,48.5,14.1c16.4,10.5,29.1,26.1,36,44.5C499.4,224.3,501.4,235,501.4,246z"/>
			<path class="st26" d="M500.8,246c0,49.5-40.1,89.6-89.6,89.6c-49.5,0-89.6-40.1-89.6-89.6c0-49.5,40.1-89.6,89.6-89.6
				c17.7,0,34.3,5.2,48.2,14c16.3,10.4,28.9,25.9,35.8,44.2C498.9,224.5,500.8,235,500.8,246z"/>
			<path class="st27" d="M500.3,246c0,49.2-39.9,89-89,89c-49.2,0-89-39.9-89-89c0-49.2,39.8-89,89-89c17.6,0,34,5.1,47.9,14
				c16.1,10.3,28.8,25.7,35.6,43.9C498.3,224.6,500.3,235.1,500.3,246z"/>
			<path class="st28" d="M499.7,246c0,48.8-39.6,88.4-88.4,88.4c-48.8,0-88.4-39.6-88.4-88.4s39.6-88.4,88.4-88.4
				c17.5,0,33.8,5.1,47.6,13.9c16,10.3,28.6,25.5,35.3,43.7C497.7,224.8,499.7,235.2,499.7,246z"/>
			<path class="st29" d="M499.1,246c0,48.5-39.3,87.8-87.8,87.8c-48.5,0-87.8-39.3-87.8-87.8c0-48.5,39.3-87.8,87.8-87.8
				c17.4,0,33.6,5.1,47.2,13.8c15.9,10.2,28.4,25.4,35.1,43.4C497.2,224.9,499.1,235.2,499.1,246z"/>
		</g>
		<path class="st30" d="M508.7,209.8c-13.4,10-26.9,20-40.3,30c0.1,7.4-0.4,13.5-1,18.1c-1.2,9.7-1.9,14.7-5.1,19.3
			c-3.6,5.2-8.6,8.2-12.4,10.5c-3.9,2.3-7.4,3.7-10,4.6c-12.3,4.1-21.6,6.1-24.2,5.5c-2.1-0.5-3.1-1.8-3.1-1.8
			c-0.6-0.9-0.7-1.8-0.8-2.4c-3,1.1-5.5,1.2-7,1.1c-5.3-0.3-11.1-3.1-13.9-8.4c-1.2-2.3-1.5-4.4-1.7-5.6c-1.2,0.4-4.4,1.3-7.8-0.1
			c-3.9-1.6-5.5-5.2-6.4-7.2c-0.9-2-1.3-3.8-1.4-5.1c-1.3-0.2-3.8-0.9-6.1-2.8c-3.1-2.5-4.1-5.7-4.6-7.4c-1-3.2-0.8-6-0.5-7.8
			c-0.6,0.1-3,0.5-5.2-1c-1-0.7-1.6-1.5-2-2.1c0.5-20.4,2.2-35.6,4.1-41.5c0.4-1.2,1.2-4,3.4-6.8c2.2-3,4.9-4.8,6.8-5.8
			c11.3-4.5,20.9-6.3,27.6-7.2c4.8-0.6,14.5-1,33.7-1.7c3.9-0.1,7-0.3,9.2-0.3c8.1-7.8,17.3-16.4,27.3-25.6
			c18.9,12.1,33.6,30.1,41.6,51.4C508.8,209.7,508.7,209.7,508.7,209.8z"/>
		<path class="st31" d="M420.4,246.8c1.2,6.4,0.3,11-0.6,13.9c-0.2,0.5-0.3,1-0.5,1.2c-2,4.9-5.2,8.4-8.1,10.8"/>
		<path class="st31" d="M425.3,265.7c-1.8-1.7-3.7-3.3-5.5-5c3.8-4,7.6-8,11.4-12c-0.7-0.9-1.4-1.8-2-2.7c2.8,3.3,5.6,6.6,8.4,9.8"
			/>
		<path class="st31" d="M435.8,254.7c0.4,1.7,0.8,3.6,1,5.6c0.8,6.5,0.1,12.3-0.5,14.8c-2,8-12,15.1-24.5,18.4"/>
		<path class="st31" d="M394.4,242.3c-1.5,5.7-2.9,12.3-3.8,19.5c-0.9,6.8-1.3,13.1-1.4,18.8"/>
		<path class="st31" d="M382.5,227.4c-1.7,5.2-3.2,11-4.6,17.1c-1.9,8.5-3.1,16.4-3.8,23.6"/>
		<path class="st31" d="M371.2,211.4c-1.7,5.7-3.3,11.8-4.7,18.1c-1.7,7.2-3,14.1-4.1,20.7"/>
	</g>
	<g id="paper" class="st0">
		<g class="st1">
			<path class="st2" d="M1107.9,203.7c0,57.5-46.6,104.2-104.2,104.2c-57.5,0-104.2-46.6-104.2-104.2c0-14.9,3.1-29.1,8.8-41.9
				c7.4-16.9,19.2-31.4,33.9-42.2c17.2-12.6,38.5-20,61.5-20c20.6,0,39.8,6,56,16.3c18.9,12.1,33.6,30.1,41.6,51.4
				C1105.6,178.7,1107.9,190.9,1107.9,203.7z"/>
			<path class="st3" d="M1003.8,100.1c20.5,0,39.6,6,55.7,16.2c18.8,12,33.5,29.9,41.4,51.1c4.2,11.3,6.5,23.5,6.5,36.2
				c0,57.2-46.4,103.6-103.6,103.6c-57.2,0-103.6-46.4-103.6-103.6c0-14.8,3.1-28.9,8.7-41.7c7.4-16.8,19.1-31.3,33.7-42
				C959.8,107.5,980.9,100.1,1003.8,100.1z"/>
			<path class="st4" d="M1003.8,100.7c20.4,0,39.4,5.9,55.4,16.1c18.7,11.9,33.3,29.8,41.1,50.9c4.2,11.2,6.5,23.3,6.5,36
				c0,56.9-46.1,103-103,103c-56.9,0-103-46.1-103-103c0-14.7,3.1-28.8,8.7-41.4c7.3-16.7,19-31.1,33.6-41.7
				C960,108.1,981,100.7,1003.8,100.7z"/>
			<path class="st5" d="M1003.8,101.3c20.3,0,39.2,5.9,55.1,16.1c18.6,11.9,33.1,29.6,40.9,50.6c4.2,11.1,6.4,23.2,6.4,35.8
				c0,56.6-45.9,102.4-102.4,102.4c-56.6,0-102.4-45.9-102.4-102.4c0-14.7,3.1-28.6,8.6-41.2c7.3-16.6,18.9-30.9,33.4-41.5
				C960.3,108.6,981.2,101.3,1003.8,101.3z"/>
			<path class="st6" d="M1003.8,101.9c20.2,0,38.9,5.9,54.8,16c18.5,11.8,32.9,29.4,40.7,50.3c4.1,11.1,6.4,23.1,6.4,35.6
				c0,56.2-45.6,101.8-101.8,101.8c-56.3,0-101.8-45.6-101.8-101.8c0-14.6,3.1-28.4,8.6-41c7.3-16.5,18.8-30.7,33.2-41.3
				C960.5,109.2,981.3,101.9,1003.8,101.9z"/>
			<path class="st7" d="M1003.8,102.5c20,0,38.7,5.8,54.5,15.9c18.4,11.7,32.7,29.3,40.4,50c4.1,11,6.4,22.9,6.4,35.4
				c0,55.9-45.3,101.3-101.3,101.3c-55.9,0-101.3-45.3-101.3-101.3c0-14.5,3-28.3,8.5-40.7c7.2-16.4,18.7-30.6,33-41
				C960.8,109.7,981.4,102.5,1003.8,102.5z"/>
			<path class="st8" d="M1003.8,103.1c19.9,0,38.5,5.8,54.1,15.8c18.3,11.7,32.5,29.1,40.2,49.7c4.1,10.9,6.3,22.8,6.3,35.2
				c0,55.6-45.1,100.7-100.7,100.7c-55.6,0-100.7-45.1-100.7-100.7c0-14.4,3-28.1,8.5-40.5c7.2-16.3,18.6-30.4,32.8-40.8
				C961,110.3,981.6,103.1,1003.8,103.1z"/>
			<path class="st9" d="M1003.8,103.6c19.8,0,38.3,5.8,53.8,15.7c18.2,11.6,32.3,28.9,40,49.4c4.1,10.9,6.3,22.7,6.3,35
				c0,55.3-44.8,100.1-100.1,100.1c-55.3,0-100.1-44.8-100.1-100.1c0-14.3,3-28,8.4-40.3c7.1-16.2,18.5-30.2,32.6-40.6
				C961.3,110.8,981.7,103.6,1003.8,103.6z"/>
			<path class="st10" d="M1003.8,104.2c19.7,0,38.1,5.7,53.5,15.6c18.1,11.5,32.1,28.8,39.7,49.1c4,10.8,6.2,22.5,6.2,34.8
				c0,55-44.6,99.5-99.5,99.5c-55,0-99.5-44.6-99.5-99.5c0-14.2,3-27.8,8.4-40c7.1-16.1,18.4-30,32.4-40.3
				C961.5,111.3,981.8,104.2,1003.8,104.2z"/>
			<path class="st11" d="M1003.8,104.8c19.6,0,37.8,5.7,53.2,15.5c17.9,11.5,32,28.6,39.5,48.8c4,10.8,6.2,22.4,6.2,34.6
				c0,54.6-44.3,98.9-98.9,98.9c-54.6,0-98.9-44.3-98.9-98.9c0-14.2,3-27.6,8.3-39.8c7.1-16,18.2-29.9,32.2-40.1
				C961.8,111.9,981.9,104.8,1003.8,104.8z"/>
			<path class="st12" d="M1003.8,105.4c19.5,0,37.6,5.7,52.9,15.4c17.8,11.4,31.8,28.4,39.3,48.6c4,10.7,6.2,22.3,6.2,34.4
				c0,54.3-44,98.3-98.3,98.3c-54.3,0-98.3-44-98.3-98.3c0-14.1,3-27.5,8.3-39.6c7-15.9,18.1-29.7,32-39.8
				C962,112.4,982.1,105.4,1003.8,105.4z"/>
			<path class="st13" d="M1003.8,106c19.4,0,37.4,5.6,52.6,15.3c17.7,11.3,31.6,28.2,39,48.3c4,10.6,6.1,22.1,6.1,34.2
				c0,54-43.8,97.8-97.8,97.8c-54,0-97.8-43.8-97.8-97.8c0-14,2.9-27.3,8.2-39.3c7-15.9,18-29.5,31.8-39.6
				C962.3,113,982.2,106,1003.8,106z"/>
			<path class="st14" d="M1003.8,106.6c19.2,0,37.2,5.6,52.3,15.2c17.6,11.3,31.4,28.1,38.8,48c3.9,10.6,6.1,22,6.1,34
				c0,53.7-43.5,97.2-97.2,97.2c-53.7,0-97.2-43.5-97.2-97.2c0-13.9,2.9-27.1,8.2-39.1c6.9-15.8,17.9-29.3,31.7-39.4
				C962.5,113.5,982.3,106.6,1003.8,106.6z"/>
			<path class="st15" d="M1003.8,107.1c19.1,0,36.9,5.6,51.9,15.1c17.5,11.2,31.2,27.9,38.6,47.7c3.9,10.5,6.1,21.9,6.1,33.8
				c0,53.3-43.2,96.6-96.6,96.6c-53.4,0-96.6-43.2-96.6-96.6c0-13.8,2.9-27,8.1-38.9c6.9-15.7,17.8-29.1,31.5-39.1
				C962.8,114,982.5,107.1,1003.8,107.1z"/>
			<path class="st16" d="M1003.8,107.7c19,0,36.7,5.5,51.6,15.1c17.4,11.1,31,27.7,38.3,47.4c3.9,10.4,6,21.8,6,33.6
				c0,53-43,96-96,96c-53,0-96-43-96-96c0-13.7,2.9-26.8,8.1-38.6c6.8-15.6,17.7-29,31.3-38.9C963,114.6,982.6,107.7,1003.8,107.7z"
				/>
			<path class="st16" d="M1003.8,108.3c18.9,0,36.5,5.5,51.3,15c17.3,11.1,30.8,27.6,38.1,47.1c3.9,10.4,6,21.6,6,33.4
				c0,52.7-42.7,95.4-95.4,95.4c-52.7,0-95.4-42.7-95.4-95.4c0-13.7,2.9-26.7,8-38.4c6.8-15.5,17.6-28.8,31.1-38.7
				C963.3,115.1,982.7,108.3,1003.8,108.3z"/>
			<path class="st17" d="M1003.8,108.9c18.8,0,36.3,5.5,51,14.9c17.2,11,30.6,27.4,37.9,46.8c3.9,10.3,6,21.5,6,33.1
				c0,52.4-42.5,94.8-94.8,94.8c-52.4,0-94.8-42.5-94.8-94.8c0-13.6,2.9-26.5,8-38.2c6.8-15.4,17.5-28.6,30.9-38.4
				C963.5,115.7,982.8,108.9,1003.8,108.9z"/>
			<path class="st18" d="M1003.8,109.5c18.7,0,36,5.4,50.7,14.8c17.1,10.9,30.4,27.2,37.6,46.5c3.8,10.3,5.9,21.4,5.9,32.9
				c0,52.1-42.2,94.3-94.3,94.3c-52.1,0-94.3-42.2-94.3-94.3c0-13.5,2.8-26.3,7.9-37.9c6.7-15.3,17.4-28.4,30.7-38.2
				C963.8,116.2,983,109.5,1003.8,109.5z"/>
			<path class="st19" d="M1003.8,110.1c18.5,0,35.8,5.4,50.4,14.7c17,10.9,30.3,27.1,37.4,46.2c3.8,10.2,5.9,21.2,5.9,32.7
				c0,51.7-41.9,93.7-93.7,93.7c-51.7,0-93.7-41.9-93.7-93.7c0-13.4,2.8-26.2,7.9-37.7c6.7-15.2,17.3-28.3,30.5-37.9
				C964,116.8,983.1,110.1,1003.8,110.1z"/>
			<path class="st20" d="M1003.8,110.6c18.4,0,35.6,5.4,50.1,14.6c16.9,10.8,30.1,26.9,37.2,46c3.8,10.1,5.8,21.1,5.8,32.5
				c0,51.4-41.7,93.1-93.1,93.1c-51.4,0-93.1-41.7-93.1-93.1c0-13.3,2.8-26,7.8-37.5c6.6-15.1,17.2-28.1,30.3-37.7
				C964.2,117.3,983.2,110.6,1003.8,110.6z"/>
			<path class="st21" d="M1003.8,111.2c18.3,0,35.4,5.3,49.7,14.5c16.8,10.7,29.9,26.7,37,45.7c3.8,10.1,5.8,21,5.8,32.3
				c0,51.1-41.4,92.5-92.5,92.5c-51.1,0-92.5-41.4-92.5-92.5c0-13.2,2.8-25.8,7.8-37.2c6.6-15,17.1-27.9,30.1-37.5
				C964.5,117.8,983.4,111.2,1003.8,111.2z"/>
			<path class="st22" d="M1003.8,111.8c18.2,0,35.2,5.3,49.4,14.4c16.7,10.7,29.7,26.6,36.7,45.4c3.7,10,5.8,20.8,5.8,32.1
				c0,50.8-41.2,91.9-91.9,91.9c-50.8,0-91.9-41.2-91.9-91.9c0-13.2,2.8-25.7,7.7-37c6.6-14.9,17-27.7,29.9-37.2
				C964.7,118.4,983.5,111.8,1003.8,111.8z"/>
			<path class="st23" d="M1003.8,112.4c18.1,0,34.9,5.3,49.1,14.3c16.6,10.6,29.5,26.4,36.5,45.1c3.7,9.9,5.7,20.7,5.7,31.9
				c0,50.4-40.9,91.3-91.3,91.3c-50.5,0-91.3-40.9-91.3-91.3c0-13.1,2.7-25.5,7.7-36.8c6.5-14.8,16.8-27.6,29.8-37
				C965,118.9,983.6,112.4,1003.8,112.4z"/>
			<path class="st24" d="M1003.8,113c18,0,34.7,5.2,48.8,14.2c16.5,10.5,29.3,26.2,36.3,44.8c3.7,9.9,5.7,20.6,5.7,31.7
				c0,50.1-40.6,90.8-90.8,90.8c-50.1,0-90.8-40.6-90.8-90.8c0-13,2.7-25.4,7.7-36.5c6.5-14.7,16.7-27.4,29.6-36.8
				C965.2,119.5,983.7,113,1003.8,113z"/>
			<path class="st25" d="M1003.8,113.6c17.8,0,34.5,5.2,48.5,14.1c16.4,10.5,29.1,26.1,36,44.5c3.7,9.8,5.7,20.4,5.7,31.5
				c0,49.8-40.4,90.2-90.2,90.2c-49.8,0-90.2-40.4-90.2-90.2c0-12.9,2.7-25.2,7.6-36.3c6.4-14.6,16.6-27.2,29.4-36.5
				C965.5,120,983.9,113.6,1003.8,113.6z"/>
			<path class="st26" d="M1003.8,114.1c17.7,0,34.3,5.2,48.2,14c16.3,10.4,28.9,25.9,35.8,44.2c3.6,9.7,5.6,20.3,5.6,31.3
				c0,49.5-40.1,89.6-89.6,89.6c-49.5,0-89.6-40.1-89.6-89.6c0-12.8,2.7-25,7.6-36.1c6.4-14.5,16.5-27,29.2-36.3
				C965.7,120.5,984,114.1,1003.8,114.1z"/>
			<path class="st27" d="M1003.8,114.7c17.6,0,34,5.1,47.9,14c16.1,10.3,28.8,25.7,35.6,43.9c3.6,9.7,5.6,20.2,5.6,31.1
				c0,49.2-39.9,89-89,89c-49.2,0-89-39.9-89-89c0-12.7,2.7-24.9,7.5-35.8c6.3-14.4,16.4-26.8,29-36
				C966,121.1,984.1,114.7,1003.8,114.7z"/>
			<path class="st28" d="M1003.8,115.3c17.5,0,33.8,5.1,47.6,13.9c16,10.3,28.6,25.5,35.3,43.7c3.6,9.6,5.6,20,5.6,30.9
				c0,48.8-39.6,88.4-88.4,88.4c-48.8,0-88.4-39.6-88.4-88.4c0-12.7,2.7-24.7,7.5-35.6c6.3-14.3,16.3-26.7,28.8-35.8
				C966.2,121.6,984.3,115.3,1003.8,115.3z"/>
			<path class="st29" d="M1091.6,203.7c0,48.5-39.3,87.8-87.8,87.8c-48.5,0-87.8-39.3-87.8-87.8c0-48.5,39.3-87.8,87.8-87.8
				c17.4,0,33.6,5.1,47.2,13.8c15.9,10.2,28.4,25.4,35.1,43.4C1089.7,182.6,1091.6,192.9,1091.6,203.7z"/>
		</g>
		<path class="st30" d="M1058,211.8c-0.9-1.6-2.7-2.2-3.3-2.4c-1.7-1.1-3.4-2.3-5.2-3.6c-3.2-2.3-6.5-4.6-9.9-7.2
			c-10.1-7.7-19.1-15.4-27.1-22.9c12.3,10,24.6,20,36.9,30c0.3,0.2,2.3,1.3,4.4,0.5c2.4-0.8,3.5-3.4,3.4-5.5c0-1.6-0.9-2.7-3.2-5.4
			c-5-5.8-6.1-6.8-6.1-6.8c-11.9-10.6-9.5-9.5-24-21.7c-5.9-4.9-8.9-7.4-10.7-8.7c-6.1-4.1-11.5-6.7-20.9-10.6
			c-11.8-4.9-20.6-8-22.5-8.7c-7.6-2.8-17.2-8.2-27.6-19.4c-14.7,10.8-26.5,25.3-33.9,42.2c3.5,2.2,7.5,5.3,11.6,9.4
			c6.3,6.4,10.1,12.9,12.3,17.6c1.5,4.7,2.4,8.5,2.9,11.1c0.8,4.2,1,6.3,2.4,9.3c0.8,1.7,1.7,3.1,4.7,6.5c4.5,5.2,8.5,9,10.7,11.1
			c6.9,6.6,7.2,6.7,9.9,9.3c3.1,3,7.4,7.5,12.3,13.5c0.8,0,2-0.1,3.3-0.6c4.3-1.8,6.8-7,6.1-11.2c-0.1-1-0.4-1.7-2.3-4.9
			c-3.4-5.8-6.4-9.8-8.7-13.1c-1.3-1.9-3.2-4.7-5.2-8.3c2.8,1.3,6.8,3.4,11.5,6.4c5.4,3.4,7.5,5.3,17.6,13
			c10,7.6,14.2,10.6,20.3,13.5c9,4.3,12,3.7,13.8,2.8c4.6-2.3,5.5-8.6,5.8-10.3c-2.8-2-5.7-4.1-8.6-6.3c-11.4-8.5-22-17.1-31.9-25.7
			c14.1,10.8,28.2,21.5,42.3,32.3c1.6,0.5,4.1,1,6.9,0.4c3.8-0.8,8.6-3.8,8.8-7.7c0.1-1.5-0.6-2.7-1.1-3.8c-1.4-2.6-3.4-4-4.5-4.6
			c-0.1-0.1-0.2-0.1-0.3-0.2c1.1,0.3,2.3,0.5,3.6,0.2c2.5-0.6,3.8-2.5,4.2-3.1C1057.2,218,1059.6,214.7,1058,211.8z M1042.9,218
			c-4.3-1.7-9.2-5.3-19.1-12.5c-6.7-4.9-12.7-9.8-18-14.7c5.4,5,11.8,10.2,19.1,15.5c7.2,5.2,14.1,9.4,20.5,12.9
			C1044.7,218.7,1043.9,218.3,1042.9,218z"/>
	</g>
	<g id="scissors">
		<g>
			<path class="st29" d="M843.7,323.8c0,48.5-39.3,87.8-87.8,87.8c-48.5,0-87.8-39.3-87.8-87.8c0-48.5,39.3-87.8,87.8-87.8
				c17.4,0,33.6,5.1,47.2,13.8c15.9,10.2,28.4,25.4,35.1,43.4C841.7,302.6,843.7,313,843.7,323.8z"/>
			<path class="st32" d="M755.8,235.3c17.5,0,33.8,5.1,47.6,13.9c16,10.3,28.6,25.5,35.3,43.7c0.5,1.3,1,2.7,1.4,4
				c2.7,8.5,4.2,17.5,4.2,26.9c0,8.6-1.2,17-3.5,24.8c-10.7,36.7-44.7,63.6-84.9,63.6c-48.8,0-88.4-39.6-88.4-88.4
				S707,235.3,755.8,235.3z"/>
			<path class="st33" d="M755.8,234.8c17.6,0,34,5.1,47.9,14c16.1,10.3,28.8,25.7,35.6,43.9c0.5,1.3,1,2.7,1.4,4
				c2.7,8.5,4.2,17.6,4.2,27.1c0,8.7-1.2,17.1-3.6,25c-10.8,37-45,64-85.4,64c-49.2,0-89-39.9-89-89S706.7,234.8,755.8,234.8z"/>
			<path class="st34" d="M755.8,234.2c17.7,0,34.3,5.2,48.2,14c16.3,10.4,28.9,25.9,35.8,44.2c0.5,1.3,1,2.7,1.4,4.1
				c2.7,8.6,4.2,17.7,4.2,27.2c0,8.7-1.2,17.2-3.6,25.2c-10.9,37.2-45.3,64.4-86,64.4c-49.5,0-89.6-40.1-89.6-89.6
				S706.3,234.2,755.8,234.2z"/>
			<path class="st35" d="M755.8,233.6c17.8,0,34.5,5.2,48.5,14.1c16.4,10.5,29.1,26.1,36,44.5c0.5,1.4,1,2.7,1.4,4.1
				c2.8,8.6,4.2,17.9,4.2,27.4c0,8.8-1.3,17.3-3.6,25.3c-10.9,37.5-45.6,64.9-86.6,64.9c-49.8,0-90.2-40.4-90.2-90.2
				C665.7,274,706,233.6,755.8,233.6z"/>
			<path class="st36" d="M755.8,233c18,0,34.7,5.2,48.8,14.2c16.5,10.5,29.3,26.2,36.3,44.8c0.5,1.4,1,2.7,1.4,4.1
				c2.8,8.7,4.3,18,4.3,27.6c0,8.8-1.3,17.4-3.6,25.5c-11,37.7-45.9,65.3-87.1,65.3c-50.1,0-90.8-40.6-90.8-90.8
				C665.1,273.6,705.7,233,755.8,233z"/>
			<path class="st37" d="M755.8,232.4c18.1,0,34.9,5.3,49.1,14.3c16.6,10.6,29.5,26.4,36.5,45.1c0.5,1.4,1,2.8,1.4,4.2
				c2.8,8.8,4.3,18.1,4.3,27.8c0,8.9-1.3,17.5-3.7,25.6c-11.1,38-46.1,65.7-87.7,65.7c-50.5,0-91.3-40.9-91.3-91.3
				C664.5,273.3,705.4,232.4,755.8,232.4z"/>
			<path class="st38" d="M755.8,231.8c18.2,0,35.2,5.3,49.4,14.4c16.7,10.7,29.7,26.6,36.7,45.4c0.5,1.4,1,2.8,1.4,4.2
				c2.8,8.8,4.3,18.2,4.3,27.9c0,9-1.3,17.6-3.7,25.8c-11.2,38.2-46.4,66.1-88.2,66.1c-50.8,0-91.9-41.2-91.9-91.9
				S705.1,231.8,755.8,231.8z"/>
			<path class="st39" d="M755.8,231.3c18.3,0,35.4,5.3,49.7,14.5c16.8,10.7,29.9,26.7,37,45.7c0.5,1.4,1,2.8,1.5,4.2
				c2.8,8.9,4.4,18.3,4.4,28.1c0,9-1.3,17.7-3.7,26c-11.2,38.4-46.7,66.5-88.8,66.5c-51.1,0-92.5-41.4-92.5-92.5
				S704.7,231.3,755.8,231.3z"/>
			<path class="st40" d="M755.8,230.7c18.4,0,35.6,5.4,50.1,14.6c16.9,10.8,30.1,26.9,37.2,46c0.5,1.4,1,2.8,1.5,4.2
				c2.8,8.9,4.4,18.4,4.4,28.3c0,9.1-1.3,17.8-3.7,26.1c-11.3,38.7-47,67-89.4,67c-51.4,0-93.1-41.7-93.1-93.1
				S704.4,230.7,755.8,230.7z"/>
			<path class="st41" d="M755.8,230.1c18.5,0,35.8,5.4,50.4,14.7c17,10.9,30.3,27.1,37.4,46.2c0.5,1.4,1,2.8,1.5,4.3
				c2.9,9,4.4,18.6,4.4,28.5c0,9.1-1.3,18-3.7,26.3c-11.4,38.9-47.3,67.4-89.9,67.4c-51.7,0-93.7-41.9-93.7-93.7
				S704.1,230.1,755.8,230.1z"/>
			<path class="st42" d="M755.8,229.5c18.7,0,36,5.4,50.7,14.8c17.1,10.9,30.4,27.2,37.6,46.5c0.5,1.4,1,2.8,1.5,4.3
				c2.9,9,4.4,18.7,4.4,28.7c0,9.2-1.3,18.1-3.8,26.5c-11.4,39.2-47.6,67.8-90.5,67.8c-52.1,0-94.3-42.2-94.3-94.3
				S703.8,229.5,755.8,229.5z"/>
			<path class="st43" d="M755.8,228.9c18.8,0,36.3,5.5,51,14.9c17.2,11,30.6,27.4,37.9,46.8c0.5,1.4,1,2.9,1.5,4.3
				c2.9,9.1,4.5,18.8,4.5,28.8c0,9.2-1.3,18.2-3.8,26.6c-11.5,39.4-47.9,68.2-91,68.2c-52.4,0-94.8-42.5-94.8-94.8
				S703.4,228.9,755.8,228.9z"/>
			<path class="st44" d="M755.8,228.3c18.9,0,36.5,5.5,51.3,15c17.3,11.1,30.8,27.6,38.1,47.1c0.5,1.4,1,2.9,1.5,4.3
				c2.9,9.1,4.5,18.9,4.5,29c0,9.3-1.3,18.3-3.8,26.8c-11.6,39.7-48.2,68.6-91.6,68.6c-52.7,0-95.4-42.7-95.4-95.4
				S703.1,228.3,755.8,228.3z"/>
			<path class="st45" d="M755.8,227.8c19,0,36.7,5.5,51.6,15.1c17.4,11.1,31,27.7,38.3,47.4c0.5,1.4,1,2.9,1.5,4.4
				c2.9,9.2,4.5,19,4.5,29.2c0,9.4-1.3,18.4-3.8,27c-11.7,39.9-48.5,69.1-92.2,69.1c-53,0-96-43-96-96S702.8,227.8,755.8,227.8z"/>
			<path class="st46" d="M755.8,227.2c19.1,0,36.9,5.6,51.9,15.1c17.5,11.2,31.2,27.9,38.6,47.7c0.5,1.4,1,2.9,1.5,4.4
				c3,9.3,4.5,19.1,4.5,29.4c0,9.4-1.3,18.5-3.9,27.1c-11.7,40.1-48.8,69.5-92.7,69.5c-53.4,0-96.6-43.2-96.6-96.6
				S702.5,227.2,755.8,227.2z"/>
			<path class="st47" d="M755.8,226.6c19.2,0,37.2,5.6,52.3,15.2c17.6,11.3,31.4,28.1,38.8,48c0.5,1.5,1.1,2.9,1.5,4.4
				c3,9.3,4.6,19.2,4.6,29.5c0,9.5-1.4,18.6-3.9,27.3c-11.8,40.4-49.1,69.9-93.3,69.9c-53.7,0-97.2-43.5-97.2-97.2
				S702.2,226.6,755.8,226.6z"/>
			<path class="st48" d="M755.8,226c19.4,0,37.4,5.6,52.6,15.3c17.7,11.3,31.6,28.2,39,48.3c0.5,1.5,1.1,2.9,1.5,4.4
				c3,9.4,4.6,19.4,4.6,29.7c0,9.5-1.4,18.7-3.9,27.4c-11.9,40.6-49.4,70.3-93.8,70.3c-54,0-97.8-43.8-97.8-97.8
				S701.8,226,755.8,226z"/>
			<path class="st49" d="M755.8,225.4c19.5,0,37.6,5.7,52.9,15.4c17.8,11.4,31.8,28.4,39.3,48.6c0.5,1.5,1.1,3,1.5,4.5
				c3,9.4,4.6,19.5,4.6,29.9c0,9.6-1.4,18.9-3.9,27.6c-11.9,40.9-49.7,70.7-94.4,70.7c-54.3,0-98.3-44-98.3-98.3
				S701.5,225.4,755.8,225.4z"/>
			<path class="st50" d="M755.8,224.8c19.6,0,37.8,5.7,53.2,15.5c17.9,11.5,32,28.6,39.5,48.8c0.6,1.5,1.1,3,1.6,4.5
				c3,9.5,4.7,19.6,4.7,30.1c0,9.6-1.4,19-4,27.8c-12,41.1-50,71.2-95,71.2c-54.6,0-98.9-44.3-98.9-98.9
				C656.9,269.1,701.2,224.8,755.8,224.8z"/>
			<path class="st51" d="M755.8,224.3c19.7,0,38.1,5.7,53.5,15.6c18.1,11.5,32.1,28.8,39.7,49.1c0.6,1.5,1.1,3,1.6,4.5
				c3,9.5,4.7,19.7,4.7,30.3c0,9.7-1.4,19.1-4,27.9c-12.1,41.4-50.3,71.6-95.5,71.6c-55,0-99.5-44.6-99.5-99.5
				S700.9,224.3,755.8,224.3z"/>
			<path class="st52" d="M755.8,223.7c19.8,0,38.3,5.8,53.8,15.7c18.2,11.6,32.3,28.9,40,49.4c0.6,1.5,1.1,3,1.6,4.6
				c3,9.6,4.7,19.8,4.7,30.4c0,9.8-1.4,19.2-4,28.1c-12.1,41.6-50.6,72-96.1,72c-55.3,0-100.1-44.8-100.1-100.1
				S700.5,223.7,755.8,223.7z"/>
			<path class="st53" d="M755.8,223.1c19.9,0,38.5,5.8,54.1,15.8c18.3,11.7,32.5,29.1,40.2,49.7c0.6,1.5,1.1,3,1.6,4.6
				c3.1,9.7,4.7,19.9,4.7,30.6c0,9.8-1.4,19.3-4,28.3c-12.2,41.8-50.9,72.4-96.6,72.4c-55.6,0-100.7-45.1-100.7-100.7
				S700.2,223.1,755.8,223.1z"/>
			<path class="st54" d="M755.8,222.5c20,0,38.7,5.8,54.5,15.9c18.4,11.7,32.7,29.3,40.4,50c0.6,1.5,1.1,3.1,1.6,4.6
				c3.1,9.7,4.8,20.1,4.8,30.8c0,9.9-1.4,19.4-4,28.4c-12.3,42.1-51.2,72.8-97.2,72.8c-55.9,0-101.3-45.3-101.3-101.3
				S699.9,222.5,755.8,222.5z"/>
			<path class="st55" d="M755.8,221.9c20.2,0,38.9,5.9,54.8,16c18.5,11.8,32.9,29.4,40.7,50.3c0.6,1.5,1.1,3.1,1.6,4.6
				c3.1,9.8,4.8,20.2,4.8,31c0,9.9-1.4,19.5-4.1,28.6c-12.4,42.3-51.5,73.3-97.8,73.3C699.6,425.6,654,380,654,323.8
				C654,267.5,699.6,221.9,755.8,221.9z"/>
			<path class="st56" d="M755.8,221.3c20.3,0,39.2,5.9,55.1,16.1c18.6,11.9,33.1,29.6,40.9,50.6c0.6,1.5,1.1,3.1,1.6,4.7
				c3.1,9.8,4.8,20.3,4.8,31.1c0,10-1.4,19.6-4.1,28.8c-12.4,42.6-51.7,73.7-98.3,73.7c-56.6,0-102.4-45.9-102.4-102.4
				C653.4,267.2,699.3,221.3,755.8,221.3z"/>
			<path class="st57" d="M755.8,220.8c20.4,0,39.4,5.9,55.4,16.1c18.7,11.9,33.3,29.8,41.1,50.9c0.6,1.5,1.1,3.1,1.6,4.7
				c3.1,9.9,4.9,20.4,4.9,31.3c0,10-1.4,19.7-4.1,28.9c-12.5,42.8-52,74.1-98.9,74.1c-56.9,0-103-46.1-103-103
				C652.8,266.9,698.9,220.8,755.8,220.8z"/>
			<path class="st58" d="M755.8,220.2c20.5,0,39.6,6,55.7,16.2c18.8,12,33.5,29.9,41.4,51.1c0.6,1.6,1.1,3.1,1.6,4.7
				c3.1,9.9,4.9,20.5,4.9,31.5c0,10.1-1.4,19.9-4.1,29.1c-12.6,43.1-52.3,74.5-99.4,74.5c-57.2,0-103.6-46.4-103.6-103.6
				C652.2,266.6,698.6,220.2,755.8,220.2z"/>
			<path class="st2" d="M860,323.8c0,10.1-1.4,20-4.2,29.2c-12.6,43.3-52.6,74.9-100,74.9c-57.5,0-104.2-46.6-104.2-104.2
				c0-57.5,46.6-104.2,104.2-104.2c20.6,0,39.8,6,56,16.3c18.9,12.1,33.6,30.1,41.6,51.4c0.6,1.6,1.1,3.1,1.6,4.7
				C858.3,302.1,860,312.7,860,323.8z"/>
		</g>
		<g>
			<path class="st59" d="M860,323.8c0,10.1-1.4,20-4.2,29.2h-25.6c-1,1.2-2.5,3-4.3,5.1c-8.3,9.9-8.1,10.4-10,11.8
				c-4.3,3.3-9,3.5-18.1,4.1c-6.1,0.4-11.2-0.1-14.6-0.5c-4.1,2.7-15.7,9.6-28.1,6.4c-3.2-0.8-10.2-2.6-11.8-7.9
				c-0.8-2.8,0.2-5.6,1-7.1c-1.5-0.3-7.9-1.9-11.8-7.7c-2.2-3.3-2.7-6.7-2.8-7.4c-0.3-2.1-0.2-3.9,0-5.1h-9.2
				c-14.3-0.5-24.9-0.6-32.2-0.2c-1.3,0.1-4.5,0.2-6.6-1.8c-2.6-2.4-2.9-7.4-1-10.5c2-3.2,6.1-3.8,13.8-4.6c10.6-1.2,19-2,24.2-2.6
				c9.8-0.1,17.5-1.5,23-2.8c7.8-1.9,9.3-3.4,9.4-4.6c0.2-2-3.6-3.9-7.1-5.6c-12.7-6.1-24.6-14.3-38-18.6c-0.2,0-5.9-1.9-11.8-6.6
				c-4.2-3.4-4.6-5.3-4.6-6.4c0-3,3.1-5.5,5.9-6.4c4.4-1.3,8.1,1.5,8.4,1.8c13.5,4.3,27.6,8.4,42.4,12.2c5.9,1.5,11.8,3,17.6,4.3
				c2.6-4.5,5.5-7.7,7.6-9.7c3.6-3.4,9.4-8.9,17.6-9.2c2.4-0.1,4.1,0.3,7.1,1c2.4,0.6,8.9,2.3,16.1,7.4c5.3,3.8,5.1,5.1,9.4,7.1
				c0.8,0.4,3.6,1.6,10.2,2.6c6.8,1,12.2,0.9,13.9,0.9c3.5-0.1,6.4-0.2,8.9-0.2C858.3,302.1,860,312.7,860,323.8z"/>
			<path class="st59" d="M764.1,292.2c-0.7,1.7-1.7,4.3-2,7.7c-0.6,5.2,0.7,9,2.6,14.6c1.8,5.4,2.8,8.1,5.4,9.4
				c0.2,0.1,3.6,1.8,6.4,0.3c2.9-1.5,3-5.2,4.6-12.8c0.7-3.3,1.7-7.9,3.3-13.3c1.4-0.3,4.5-0.7,6.1,1c1.3,1.4,1.1,3.4,1,4.3
				c-0.6,7.5,0.6,15.4,0.8,16.6c0.7,4,4.7,9.2,19.9,13.8"/>
			<path class="st59" d="M729.9,344.6c4,0.2,8.3,0.3,13,0c9.1-0.5,17-2.1,23.5-3.8c4.3-0.9,8.9-2,14.6-0.5c2,0.5,5.1,1.4,5.6,3.3
				c0.9,3.6-8.1,8.6-11.7,10.7c-6.5,3.6-16.4,8.1-30.4,10.5"/>
			<path class="st59" d="M783.5,348.6c1,0.3,2.5,0.7,4.2,1.6c1.9,1,4.4,2.3,5.6,4.6c1.7,3.3-0.1,7.2-1.1,9.4c-2.4,5.2-6.7,8-8.9,9.2
				"/>
		</g>
	</g>
</g>
<g id="Layer_2">
	
		<image style="display:none;overflow:visible;" width="512" height="512" xlink:href="416ADC75.png"  transform="matrix(1 0 0 1 261 94)">
	</image>
</g>
</svg>
